<svg height="438pt" viewBox="0 0 438 438.86399" width="438pt" xmlns="http://www.w3.org/2000/svg"><path d="m265.574219 9.152344h-174.238281l-81.761719 81.757812v320.527344c0 10.097656 8.1875 18.285156 18.289062 18.285156h237.710938c10.101562 0 18.289062-8.1875 18.289062-18.285156v-384c0-10.101562-8.1875-18.285156-18.289062-18.285156zm0 0" fill="#e7e4e1"/><path d="m265.574219 438.863281h-237.714844c-15.125 0-27.425781-12.304687-27.425781-27.429687v-324.3125l87.113281-87.1132815h178.027344c15.125 0 27.429687 12.3007815 27.429687 27.4257815v384c0 15.125-12.304687 27.429687-27.429687 27.429687zm-246.855469-344.167969v316.738282c0 5.042968 4.101562 9.144531 9.140625 9.144531h237.714844c5.042969 0 9.144531-4.101563 9.144531-9.144531v-384c0-5.039063-4.101562-9.140625-9.144531-9.140625h-170.453125zm0 0" fill="#2a3d4f"/><path d="m344.34375 243.347656c0 55.542969-45.027344 100.570313-100.570312 100.570313-55.546876 0-100.570313-45.027344-100.570313-100.570313 0-55.542968 45.023437-100.570312 100.570313-100.570312 55.542968 0 100.570312 45.027344 100.570312 100.570312zm0 0" fill="#fccb4f"/><path d="m243.773438 353.011719c-28.097657 0-56.195313-10.695313-77.582032-32.085938-42.777344-42.777343-42.777344-112.382812 0-155.15625 42.777344-42.777343 112.382813-42.777343 155.160156 0 20.722657 20.71875 32.140626 48.273438 32.140626 77.578125 0 29.304688-11.417969 56.855469-32.140626 77.578125-21.386718 21.390625-49.484374 32.085938-77.578124 32.085938zm0-201.050781c-23.417969 0-46.828126 8.917968-64.652344 26.738281-35.644532 35.648437-35.644532 93.648437 0 129.296875 35.644531 35.648437 93.65625 35.648437 129.300781 0 17.269531-17.265625 26.78125-40.226563 26.78125-64.648438s-9.511719-47.382812-26.78125-64.648437c-17.824219-17.820313-41.234375-26.738281-64.648437-26.738281zm0 0" fill="#2a3d4f"/><path d="m204.980469 282.140625c-21.421875-21.421875-21.421875-56.152344 0-77.574219" fill="#fccb4f"/><path d="m204.980469 291.285156c-2.339844 0-4.675781-.894531-6.464844-2.679687-12.085937-12.085938-18.742187-28.15625-18.742187-45.25s6.65625-33.164063 18.742187-45.253907c3.574219-3.570312 9.359375-3.570312 12.929687 0 3.574219 3.570313 3.574219 9.355469 0 12.929688-8.632812 8.632812-13.386718 20.113281-13.386718 32.324219 0 12.210937 4.753906 23.6875 13.386718 32.320312 3.574219 3.566407 3.574219 9.359375 0 12.929688-1.785156 1.785156-4.125 2.679687-6.464843 2.679687zm0 0" fill="#2a3d4f"/><path d="m340.746094 349.46875c-2.339844 0-4.679688-.894531-6.464844-2.679688l-25.859375-25.863281c-3.570313-3.570312-3.570313-9.359375 0-12.929687 3.574219-3.570313 9.359375-3.570313 12.929687 0l25.859376 25.863281c3.570312 3.570313 3.570312 9.363281 0 12.929687-1.789063 1.785157-4.125 2.679688-6.464844 2.679688zm0 0" fill="#2a3d4f"/><path d="m424.792969 424.367188c-7.140625 7.140624-18.71875 7.140624-25.863281 0l-61.414063-61.417969c-1.785156-1.785157-1.785156-4.679688 0-6.464844l19.394531-19.394531c1.785156-1.785156 4.679688-1.785156 6.464844 0l61.417969 61.417968c7.140625 7.140626 7.140625 18.71875 0 25.859376zm0 0" fill="#4b6981"/><g fill="#2a3d4f"><path d="m411.859375 438.855469c-7.019531 0-14.042969-2.675781-19.390625-8.023438l-61.421875-61.417969c-5.347656-5.347656-5.347656-14.046874 0-19.394531l19.398437-19.398437c5.34375-5.332032 14.039063-5.339844 19.382813-.007813l61.425781 61.429688c5.183594 5.179687 8.035156 12.066406 8.035156 19.390625 0 7.328125-2.851562 14.222656-8.035156 19.398437-5.347656 5.347657-12.371094 8.023438-19.394531 8.023438zm-64.648437-79.136719 58.1875 58.183594c3.5625 3.566406 9.363281 3.566406 12.925781 0 1.730469-1.726563 2.679687-4.023438 2.679687-6.46875 0-2.441406-.949218-4.734375-2.679687-6.457032l-58.183594-58.191406zm0 0"/><path d="m46.144531 256.007812h54.859375v18.285157h-54.859375zm0 0"/><path d="m46.144531 310.863281h82.289063v18.285157h-82.289063zm0 0"/><path d="m46.144531 201.148438h54.859375v18.285156h-54.859375zm0 0"/><path d="m46.144531 146.292969h82.289063v18.285156h-82.289063zm0 0"/></g><path d="m91.335938 90.910156v-81.757812l-81.761719 81.757812zm0 0" fill="#e7e4e1"/><path d="m91.332031 100.050781h-81.757812c-3.695313 0-7.03125-2.226562-8.445313-5.640625-1.414062-3.421875-.632812-7.347656 1.980469-9.964844l81.761719-81.757812c2.609375-2.6210938 6.535156-3.414062 9.960937-1.984375 3.417969 1.414063 5.644531 4.75 5.644531 8.445313v81.761718c0 5.046875-4.09375 9.140625-9.144531 9.140625zm-59.683593-18.285156h50.542968v-50.542969zm0 0" fill="#2a3d4f"/></svg>